<?xml version="1.0" encoding="UTF-8"?>
<svg id="_Слой_1" data-name="Слой 1" xmlns="http://www.w3.org/2000/svg" viewBox="0 0 935.32 935.32">
<defs>
  <linearGradient id="gradientStroke" x1="0%" y1="0%" x2="100%" y2="0%">
    <stop offset="0%" stop-color="#1E90FF" />
    <stop offset="50%" stop-color="#6A5ACD" />
    <stop offset="100%" stop-color="#FF69B4" />
  </linearGradient>

  <linearGradient id="gradientFill" x1="0%" y1="0%" x2="100%" y2="100%">
    <stop offset="0%" stop-color="#1E90FF" />
    <stop offset="50%" stop-color="#6A5ACD" />
    <stop offset="100%" stop-color="#FF69B4" />
  </linearGradient>

  <style>
    .cls-1 {
      stroke-width: 6px;
    }

    .cls-1, .cls-2, .cls-3, .cls-4, .cls-5 {
      fill: none;
      stroke-miterlimit: 10;
    }

    .cls-1, .cls-3, .cls-4, .cls-5, .cls-2 {
      stroke: url(#gradientStroke); /* Теперь градиент на все обводки */
    }

    .cls-1, .cls-3, .cls-5 {
      stroke-linecap: round;
    }

    .cls-3 {
      stroke-width: 18px;
    }

    .cls-4, .cls-5 {
      stroke-width: 20px;
    }

    /* Добавляем градиент для заливки */
    .cls-6 {
      fill: url(#gradientFill); /* Применяем градиент для заливки */
      stroke-width: 0px;
    }
  </style>
</defs>
  <g>
    <path class="cls-3" d="M317.06,377.24s10.45-147.41,151.5-155.34"/>
    <path class="cls-4" d="M682.74,369.77c0-118.44-96.13-214.42-214.63-214.18-118.3.24-214.59,97.47-213.73,215.77.66,91.04,58.13,168.57,138.72,198.92.81.3,1.35,1.07,1.35,1.94l22.62,103.61h105.35l23.88-103.61c0-.87.54-1.64,1.35-1.94,81.01-30.52,135.09-108.78,135.09-200.5Z"/>
    <rect class="cls-6" x="394.44" y="713.58" width="150.59" height="26.26" rx="11.79" ry="11.79"/>
    <rect class="cls-6" x="394.44" y="760.34" width="150.59" height="26.26" rx="11.79" ry="11.79"/>
    <rect class="cls-6" x="394.44" y="807.11" width="150.59" height="26.26" rx="11.79" ry="11.79"/>
    <path class="cls-5" d="M435.04,861.37s29.88,41.03,67.04,0"/>
    <rect class="cls-6" x="136.98" y="368.24" width="69.98" height="20.91" rx="9.39" ry="9.39"/>
    <rect class="cls-6" x="733.89" y="368.24" width="69.98" height="20.91" rx="9.39" ry="9.39"/>
    <rect class="cls-6" x="219.83" y="151.41" width="69.98" height="20.91" rx="9.39" ry="9.39" transform="translate(182.67 -131.27) rotate(43.75)"/>
    <rect class="cls-6" x="651.04" y="564.16" width="69.98" height="20.91" rx="9.39" ry="9.39" transform="translate(587.76 -314.86) rotate(43.75)"/>
    <rect class="cls-6" x="217.77" y="561.72" width="69.98" height="20.91" rx="9.39" ry="9.39" transform="translate(-320.4 321.65) rotate(-42.56)"/>
    <rect class="cls-6" x="657.46" y="158.02" width="69.98" height="20.91" rx="9.39" ry="9.39" transform="translate(68.44 512.69) rotate(-42.56)"/>
    <rect class="cls-6" x="435.44" y="80.25" width="69.98" height="20.91" rx="9.39" ry="9.39" transform="translate(379.72 561.13) rotate(-90)"/>
    <path class="cls-1" d="M452.67,670.3s-15.37-294.64-53.97-271.79c-38.6,22.86,2.54,67.55,31.49,39.62,28.95-27.94,78.73-4.06,91.43,6.1,12.7,10.16,65.61-17.3,23.41-47-42.2-29.7-61.35,273.07-61.35,273.07h-31.01Z"/>
    <path class="cls-1" d="M398.7,398.51s50.49-34.88,48.45,29.31"/>
    <path class="cls-1" d="M545.03,397.23s-39.96-39.45-47.77,34.14"/>
  </g>
  <rect class="cls-2" x="19.26" y="19.26" width="896.8" height="896.8" rx="177.18" ry="177.18"/>
</svg>