<?xml version="1.0" encoding="utf-8"?>
<!-- Generator: Adobe Illustrator 28.1.0, SVG Export Plug-In . SVG Version: 6.00 Build 0)  -->
<svg version="1.1" id="Слой_1" xmlns="http://www.w3.org/2000/svg" xmlns:xlink="http://www.w3.org/1999/xlink" x="0px" y="0px"
	 viewBox="0 0 1024 1024" style="enable-background:new 0 0 1024 1024;" xml:space="preserve">
<path d="M251.3,515.3c1.3,0.3,2.9,0.8,3.9,1.7c0.9,0.9,1.6,1.9,1.6,3.2c-0.1,1.2-0.6,2.1-1.4,2.9c-5,5.1-12.3,9.2-18,13.6
	l-37.8,28.5c-6.6,4.9-13.6,9.4-19.9,14.8l-0.5,0.4c2.3,5.3,4,10.7,2.1,16.4c-0.1,0.3-0.2,0.6-0.3,0.8c-0.1,0.3-0.2,0.5-0.3,0.8
	s-0.2,0.5-0.4,0.8c-0.1,0.3-0.3,0.5-0.4,0.8c-0.1,0.3-0.3,0.5-0.5,0.8c-0.2,0.2-0.3,0.5-0.5,0.7s-0.3,0.5-0.5,0.7s-0.4,0.5-0.6,0.7
	c-0.2,0.2-0.4,0.4-0.6,0.7c-0.2,0.2-0.4,0.4-0.6,0.6c-0.2,0.2-0.4,0.4-0.7,0.6c-0.2,0.2-0.5,0.4-0.7,0.5c-0.2,0.2-0.5,0.3-0.7,0.5
	s-0.5,0.3-0.7,0.5c-0.3,0.2-0.5,0.3-0.8,0.4c-0.3,0.1-0.5,0.3-0.8,0.4c-5.5,2.6-10.8,2.1-16.3,0c-3.7-2.1-6.5-4.7-8.4-8.6
	c-0.2-0.5-0.5-1.1-0.7-1.6c-0.2-0.6-0.4-1.1-0.5-1.7c-0.1-0.6-0.2-1.1-0.3-1.7s-0.1-1.2-0.2-1.8c0-0.6,0-1.2,0-1.8s0.1-1.2,0.2-1.7
	c0.1-0.6,0.2-1.2,0.4-1.7c0.2-0.6,0.3-1.1,0.5-1.7c0.2-0.6,0.4-1.1,0.7-1.6s0.5-1.1,0.9-1.6c0.3-0.5,0.7-1,1-1.5
	c0.4-0.5,0.7-0.9,1.2-1.4c0.4-0.4,0.8-0.9,1.3-1.2c0.4-0.4,0.9-0.8,1.4-1.1s1-0.7,1.5-1s1-0.6,1.6-0.8c5.4-2.4,10.8-2,16.2,0
	c12.9-11.4,29.5-22.9,43.5-33.2C228,532.9,239.4,523.7,251.3,515.3z"/>
<path d="M77.5,844.6c3.7-0.2,7.4,0.6,10.7,2.4c4.1,2.3,7.4,6.2,8.7,10.8c1.4,5.1,0.3,9.2-2.2,13.7c12.8,13.8,26,27.3,39.2,40.7
	c5.7,5.8,12.9,11.4,17.7,17.8c-0.2,8.4,1.2,36-0.9,41.9c-0.9,1-1.8,1.6-3.2,1.7c-1.2,0.1-2.3-0.2-3.1-1.2c-1.1-1.3-0.9-3.1-1-4.6
	l0.1-33.9c-18.6-18.3-36.3-37.4-54.8-55.8c-1.5,0.6-3.1,1.2-4.7,1.6c-4.4,1.2-9.2,0.4-13.1-1.8c-4.1-2.4-7.3-6.4-8.5-11.1
	c-1.2-4.6-0.3-9.5,2.2-13.5C67.6,848.3,72,846,77.5,844.6z"/>
<path d="M251.2,584.4c0.1,0,0.3,0,0.4,0c1.6,0,3,0.7,4,1.9c0.8,1,1.3,2.1,1,3.4c-0.6,3.3-29.4,24.2-34.3,28
	c0.5,4.4,1.1,8.8-0.5,13.1c-1.9,5.2-6.3,8.5-11.2,10.8l-0.1,79.7c5.3,6,45.3,46.4,45.9,48.3c0.5,1.3,0,3-0.8,4s-1.9,1.6-3.1,1.6
	c-3.2,0-6.8-4.6-8.8-6.7c-9-9.2-18-18.5-27-27.8c-4.8-5-10-9.8-14.3-15.2c-1.6-27.7,1.1-55.7-0.3-83.4c-5.7-2.4-10.7-5.3-13.1-11.3
	c-1.7-4.2-1.5-9.1,0.4-13.1c2-4.3,6-7.5,10.5-8.9c6-1.9,10.8-0.1,16.1,2.6c3-2,5.8-4.5,8.7-6.7C233.4,597.8,242.1,590.6,251.2,584.4
	z"/>
<path d="M165,644.2c2.8,0,5.5,0.7,8.1,1.9c0.3,0.1,0.5,0.3,0.8,0.4c0.3,0.1,0.5,0.3,0.8,0.4c0.3,0.2,0.5,0.3,0.8,0.5
	s0.5,0.3,0.7,0.5s0.5,0.4,0.7,0.5c0.2,0.2,0.5,0.4,0.7,0.6c0.2,0.2,0.4,0.4,0.6,0.6c0.2,0.2,0.4,0.4,0.6,0.6
	c0.2,0.2,0.4,0.4,0.6,0.7c0.2,0.2,0.4,0.5,0.5,0.7c0.2,0.2,0.3,0.5,0.5,0.7s0.3,0.5,0.5,0.8c0.1,0.3,0.3,0.5,0.4,0.8
	c0.1,0.3,0.3,0.5,0.4,0.8c0.1,0.3,0.2,0.5,0.3,0.8s0.2,0.6,0.3,0.8c1.6,4.6,1.3,9.6-0.9,13.9c-2.6,5-6.8,7.6-12,9.2
	c-0.9,21.2-0.2,42.8-0.3,64c0.6,0.4,1.2,0.9,1.7,1.3c4.3,3.5,8.1,8.3,12,12.3l22,22.7l34.8,36.3c5,5.2,10.8,10,15.5,15.5
	c0.9,1,1.4,1.9,1.3,3.3c-0.1,2.1-1.5,3.2-2.9,4.4c-0.8-0.1-1.7-0.2-2.6-0.4c-1-0.3-1.7-0.8-2.4-1.4c-11.6-10.5-23.7-24.4-34.7-35.8
	l-27.5-28.5c-6-6.1-22.2-21.4-25.8-28v-65c-2-0.9-4-1.9-5.8-3.1c-0.5-0.3-1-0.7-1.5-1.1c-0.5-0.4-0.9-0.8-1.3-1.3s-0.8-0.9-1.2-1.4
	s-0.7-1-1.1-1.5c-0.3-0.5-0.6-1-0.9-1.6c-0.3-0.5-0.5-1.1-0.8-1.7c-0.2-0.6-0.4-1.2-0.6-1.7c-0.2-0.6-0.3-1.2-0.4-1.8
	c-0.1-0.6-0.2-1.2-0.2-1.8s-0.1-1.2,0-1.8c0-0.6,0.1-1.2,0.1-1.8c0.1-0.6,0.2-1.2,0.3-1.7c0.1-0.6,0.3-1.1,0.5-1.7
	c0.2-0.6,0.4-1.1,0.7-1.6c0.2-0.5,0.5-1.1,0.8-1.6s0.6-1,1-1.5C153.7,646.8,159.2,644.9,165,644.2z"/>
<path d="M241.5,455.6c4.1,0.4,7.9,1.4,11.2,3.9c3.8,2.9,6.1,7.3,6.6,12c0.5,4.9-1,9.7-4.1,13.5c-3,3.7-7.4,6.2-12.2,6.7
	c-5.3,0.5-10.1-1.7-14.1-5.1c-20.7,15-41.2,30.6-61.8,45.8c-12.4,9.2-25.8,18-37.4,28.1l-0.1,205.4l78.9,81.6
	c14.5,14.9,28.7,30.4,43.7,44.9c1.7,1.6,3.2,3,3.5,5.4c-0.3,1.2-0.9,2.8-1.9,3.5c-1.1,0.8-2.2,1-3.4,0.6c-1.8-0.5-3.4-2.1-4.6-3.4
	c-30.8-30.8-60.7-62.7-90.8-94.2c-8-8.3-16.2-16.4-24.1-24.8c-3.2-3.5-7.3-7-9.7-11.1V631.6c0-25.3,0.4-50.6-0.2-75.9
	c13.7-11,28.4-21.3,42.6-31.7l60.5-45c-0.2-0.9-0.4-1.9-0.5-2.8c-0.7-4.7,0.3-9.7,3.3-13.5C230.8,458.3,236,456.4,241.5,455.6z"/>
<path d="M251,363.4c0.2,0,0.3,0,0.5,0c1.7,0.1,3.1,1,4.1,2.4c0.8,1.1,1.2,2.3,0.9,3.6c-0.3,1.4-1.4,2.3-2.4,3.1
	c-5.8,4.8-12.6,9-18.8,13.5l-36.1,26.4c-47.9,35.2-96.4,69.8-143.9,105.5c0.8,46.9,0.3,93.8,0.3,140.7l-0.1,276.8
	c2,0.7,4.1,1.5,5.9,2.7c4,2.6,6.7,6.9,7.5,11.6c0.1,0.6,0.2,1.2,0.2,1.8s0.1,1.2,0,1.8c0,0.6-0.1,1.2-0.1,1.8
	c-0.1,0.6-0.2,1.2-0.3,1.8c-0.1,0.6-0.3,1.2-0.5,1.8s-0.4,1.1-0.7,1.7c-0.2,0.6-0.5,1.1-0.8,1.6s-0.6,1-1,1.5
	c-3.5,4.8-8,6.6-13.6,7.4c-2.5,0-4.8-0.3-7.1-1.2c-0.3-0.1-0.6-0.2-0.8-0.3c-0.3-0.1-0.5-0.2-0.8-0.4s-0.5-0.3-0.8-0.4
	c-0.3-0.1-0.5-0.3-0.8-0.5c-0.2-0.2-0.5-0.3-0.7-0.5s-0.5-0.3-0.7-0.5s-0.5-0.4-0.7-0.6c-0.2-0.2-0.4-0.4-0.6-0.6
	c-0.2-0.2-0.4-0.4-0.6-0.6c-0.2-0.2-0.4-0.4-0.6-0.7c-0.2-0.2-0.4-0.5-0.5-0.7c-0.2-0.2-0.3-0.5-0.5-0.7s-0.3-0.5-0.5-0.7
	c-0.2-0.3-0.3-0.5-0.4-0.8c-0.1-0.3-0.3-0.5-0.4-0.8c-0.1-0.3-0.2-0.5-0.3-0.8c-1.8-4.5-1.9-9.8,0-14.2c2.3-5.4,6.6-8.1,11.8-10.1
	c-0.5-21.2-0.2-42.5-0.2-63.6l-0.2-117V513.7c8.5-7.3,18-13.6,27.1-20.2l46.8-34.1L251,363.4z"/>
<path d="M251,406.8c1.6-0.1,3.3,0.6,4.8,1.2c0.8,1,1.2,1.5,1,2.9c-0.3,2.4-2.9,4.9-4.6,6.5c-4.2,3.7-9.1,7-13.7,10.3
	c-8.3,5.9-16.5,11.9-24.6,18.1c-40.3,30-80.8,59.9-121.4,89.5v259.9c6.6,6.8,13.1,13.7,20.1,20.1c1.7-1.1,3.5-2.1,5.5-2.8
	c4.4-1.5,9.3-1.2,13.4,1.1c4.2,2.3,7.5,6.4,8.6,11.1c1.2,5,0,10.2-2.6,14.5c9.7,11.3,20.9,21.8,31.4,32.4
	c9.8,9.9,19.3,20.3,29.5,29.8c2.5,0.2,4.8,0.5,7.1,1.5c4.6,1.9,8.2,5.4,10,10.1c1.9,4.8,1.9,10.3-0.4,15c-2.7,5.6-7.2,7.8-12.7,9.6
	c-0.3,9.4-0.2,18.8-0.2,28.1c0,1.3,0.1,2.9-0.2,4.2c-0.5,2-1.6,2.9-3.3,3.9c-1.1,0.1-1.6,0.3-2.5-0.5c-3.1-3.1-1.9-29.7-2.2-35.7
	c-3.3-1.5-6.5-3.2-8.9-5.9c-3.3-3.6-4.7-8.4-4.3-13.2c0.5-6.2,3.8-9.6,8.2-13.4c-4.9-6-10.8-11.5-16.3-17
	c-13.6-13.9-27.9-27.5-40.6-42.1c-4.4,1.6-8.7,2.6-13.3,1.5c-0.5-0.1-1.1-0.3-1.6-0.5s-1-0.4-1.5-0.6c-0.5-0.2-1-0.5-1.5-0.8
	s-0.9-0.6-1.4-0.9s-0.9-0.7-1.3-1c-0.4-0.4-0.8-0.8-1.2-1.2c-0.4-0.4-0.7-0.8-1-1.3c-0.3-0.4-0.6-0.9-0.9-1.4
	c-3.2-5.5-2.9-11.6-1.4-17.6c-6.8-7.5-17.4-15.7-22.8-23.7c-0.9-11.5-0.4-23.3-0.4-34.8v-63.8l-0.2-168.1
	c7.6-7.7,17.2-13.8,25.9-20.1l27.5-20.3C175.4,463.4,213.3,435.3,251,406.8z"/>
<g>
	<path d="M912.6,515.5c19.2-2.4,36.1-11.3,48.1-26.5c15.6-20,17.7-44.7,15.1-69.2c0.6-1.3,1.2-2.5,1.7-3.8
		c-3-17.7-18.5-70.7-27.9-85.5c-4.5-7.2-14-10.9-17.4-18.3c-3.6-7.6-6.2-15.6-10-23.2c-4.4-8.8-10-17.1-13.8-26.2
		c-3.4-8.5-4.6-17.3-7.6-25.8c-8.7-24.6-26.7-46.2-47.8-61.2c-11.4-8.1-21.8-12.3-35.5-14.6c-5-11.9-11.3-21.9-22.7-28.6l-0.6-0.3
		l-0.3-0.2c1.8-2.7,3.9-5.4,3.3-8.8c-0.5-2.8-2.3-4.7-4.6-6.3c-2.9-2-6.3-3.3-9.5-4.6c-1.2-10.3-4.8-16.6-13-23
		c-10.2-8.1-13.9-12.2-18.4-24.6c-7.5-4.7-15-5.5-23.8-4.6c-26.4,2.1-49.8,14.5-67,34.5c-7.1,8.3-12,17.5-18.2,26.4
		c-2.7,3.8-7,7.2-8.5,11.6c0.4,2.8,2.8,4.4,5,6c1.3,1,2.7,1.9,4,2.8c-3.8,15.5-9.3,28.4-0.1,43.7c5.2,8.6,14.3,12.2,21.1,19.1
		c0.6,0.6,1.3,1.2,1.9,1.8c-3.6-8.4-8.3-15.9-11.2-24.6c5.5,6.1,10.1,7.5,18.1,8.4c0.2,4.7,0.1,9.8,2,14.2c2.1,5,12.4,10.8,7.3,16.6
		c-1.4,1.6-4.8,3.8-4.7,6.2c0.1,3,3.7,5.4,5.8,7.1c3.1,2.5,6.3,5.3,9.8,7.2l5.8-2.5c3.5,3.7,7.2,7.3,12.7,7.5
		c4.4,0.2,8.4-1.8,12.3-3.5c1.9,17.4,8.3,35,8.1,52.5c-0.1,9.9-27.5,66.6-33.4,74.1c-5.9,7.6-16.1,14.3-23.2,21.2
		c-8.8,8.6-61.4,63.9-63.5,70.9c-0.1,0.3-0.2,0.6-0.3,0.9c-9.2,1.5-18.5,2.7-27.7,4.2c-5.4-17.1-12.8-33.5-19-50.4l-37.4-104.9
		c-20-0.7-40.3-0.4-60.3-0.1c-7.7,19.8-14,40.1-21.3,60.1L371.2,578l-22.5,60.3c-5.7,15.1-11.2,30.5-19.4,44.5
		c-5.7,9.7-13.4,17.4-23.7,22.1c-13.4,6.1-29.6,7.5-44.1,6c-4.2-0.4-8.8-1.9-13-1.7c-2.3,0.1-3.6,0.6-4.5,2.8c0.1,1.8,0.5,3.6,2,4.9
		s3.3,1.3,5.2,1.3c6.5,0.2,13.1-1.2,19.6-1.2l105.1-0.1c6.5-17.3,12.2-34.7,18.6-52c7-18.9,14.5-37.7,21.1-56.8l106.3,0.1
		c17.6,0,35.4,0.4,53-0.2c3.2,7.5,5.6,15.4,8.2,23.1c6.5,19.2,12.4,38.9,19.7,57.7c-8.9,0.1-22.1-0.3-28.9,6.4
		c-1.8,1.8-3.3,3.9-3.2,6.5c0,2.3,1.8,4.4,3.5,5.7c16.8,13.2,64.4,4,85.8,4.1c16,0.1,31.8,3.8,47.8,1.4c4-0.6,8.3-1.7,10.9-5.1
		c2.4-3.1,2.1-7,1.5-10.7c-0.3-1.9-0.8-3.8-1.3-5.7c-3-8.4-2.5-16.2-2.3-25c7.1-1.5,12.8-5.1,16.9-11.2c3-4.5,4.5-10,3.5-15.4
		c-0.8-4.3-3-7.1-5.8-10.2c1.1-3.8,1.9-7.7,3.3-11.4c3.3-8.7,8-16.9,11.8-25.4c5.8-13.2,11.3-27.1,15.5-40.9
		c2-6.4,8.9-36.2,12.3-39.3c12.6,1.9,24.4,4,37.3,3.9c-5,11.9-10,23.7-14.1,35.9c-6.3,18.6-10.7,37.9-14.1,57.2
		c-2.1,12.2-4,24.7-3.9,37.1c0.1,8.9,1.4,18,3.1,26.7c4.2,21.7,13.1,43.4,21.5,63.8c8.9,21.1,18.1,42.1,27.6,63
		c5.2,11.1,11,22,16,33.3c-3.7,6.5-4.3,12.3-2.2,19.5c2,7.2,6.5,17,13.4,20.6c7.3,3.7,20.9,0.8,29.4,1.4c3.3,5,5.5,11,7.4,16.6
		c-2.9,2.4-5.5,4.7-7.6,7.9c-3.3,5.2-4.9,11.4-6.7,17.2c-3.4,10.7-7.3,23-13.7,32.2c-7.3,10.5-29.9,9.9-31.2,21.9
		c-0.3,2.2,0.1,4.4,1.6,6.1c3.9,4.1,13.3,4.2,18.6,4.2c23.7,0.2,45.8-7.8,62.7-24.5c6.4-6.4,12.6-12.7,20-17.9
		c10.2-7,33.8-13.7,33.6-29.3c0-2.3-0.8-4.5-1.9-6.6c-3.3-6-17.1-23-22.3-27.6c-3.1-2.8-5.6-4.2-9.9-4.9c-0.2,0-0.5-0.1-0.8-0.1
		c-3.4-4.7-5.4-9.6-6.9-15.2c5.1-4.3,8.7-8.4,9.2-15.4c0.6-8-3-20.2-8.4-26.3c-2.8-3.2-7.1-5.1-10.8-7
		c-13.1-47.1-23.6-95.6-55.4-134.3c2.5-3.3,3.3-6.2,4.1-10.2c-2-5.5-5.5-9.1-8-14.1c2.9-13,10.5-25.5,15.8-37.6
		C890.9,579.5,905.1,548.2,912.6,515.5z M971.5,414.2c-5.5,3.7-11.1,5.6-17.3,7.4c-30.7,7.9-61.5-1.8-91.3-9.1
		c-8.1-2-16.4-4.5-24.7-5.2c-10.2-0.8-20.2,1.3-30.3,2.5c-0.6-1-0.5-1-0.3-2.2c4-5,15.7-6.5,21.6-7.4c13.3-1.5,26.6,3,39.4,6.2
		c15.3,3.8,31.1,8.1,46.9,9.1c16.8,1.1,39.8,1.6,53.3-10.2C970,408.3,970.9,411,971.5,414.2z M798.2,367.9
		c3.8,12.5,8.8,29.6,4.2,42.3c-0.4,1.1-0.6,2.2-1.8,2.7c-0.8-1.4-0.2-4.5-0.2-6.1c0.1-5-0.5-9.6-1.4-14.5c-2-11.8-5.1-22.8-10-33.7
		l6-9.2c7.3,6.2,18.7,35.2,22.1,45.6c-9.2-11.5-13.2-28.9-22.9-39.3C795.3,359.8,796.8,363.9,798.2,367.9z M829.9,340.8
		c2.3,2.5,3.4,7.4,5,10.6c7,13.6,24.3,27,39,31.1c3.4,0.9,7,1.8,10.5,2.4c2.7,0.4,5.5,0.5,8.1,1.3l-0.3,0.4
		c-4.6,0.9-10.1,0.7-14.7,0c-15.7-2.4-31.4-10.9-40.9-23.8C832.1,356.5,828.6,348.7,829.9,340.8z M852.5,183.9
		c12.1,8.3,24,21.5,31.6,33.9c11.4,18.5,12.6,35.2,21.4,53.8c4.4,9.4,10.1,18.2,14.6,27.6c2.5,5.3,4,11.8,6.9,16.8
		c3.7,6.4,11.8,10.4,16.2,16.6c8.7,12,21.1,52.4,23.9,67.8c-0.9,0.8-1.9,1.5-2.9,2.2c-10.6,7.2-23,5.9-34.9,3.7
		c10.1-1,20-0.1,29.1-5.3c-1.6-8-3.4-16-5.4-23.9c-3.3-11.6-6.6-25.2-15.2-34.2c-8.9-9.2-21-7.6-32.6-7.8c5.7-1.8,11.8-2.5,17.3-5
		c1.8-0.8,3.7-1.8,4.5-3.7c0-1-0.2-1.6-0.7-2.5c-1.9-3.2-5.2-4.7-8.8-5.3c-6.5-1-13,1-19.5,1.3c-13.6,0.6-27.5-1.7-40.6-4.8
		c15.9-1,38.2,2.2,50.9-9.7c0.7-1.9,1.3-4.2,1.1-6.2c-0.9-8.8-9.8-21.4-13.5-30.2c-4.1-9.9-6.2-20.2-9.3-30.4
		c-7-22.8-20.5-41.3-38.4-56.7C849.9,182.2,851.1,183,852.5,183.9z M834.6,335.3c2,3,3.3,6.4,5.5,9.4c10.5,14.8,25.8,24.6,42.6,30.8
		c2.9,1.1,8.6,2.2,10.5,4.3c-4.1-0.1-8.2-0.7-12.2-1.7c-16.9-4.1-34.4-16-43.5-31.1C835.3,343.5,833.6,339.5,834.6,335.3z
		 M755.4,81.3c6.8,7.7,16.5,13.2,20.9,22.7c1.4,3,0.8,6.7,2.2,9.7c1.3,3,4.8,3.9,7.6,5.1c2.7,1.2,4.8,2.4,5.9,5.2
		c-1.2,6-20,26.3-25.5,31.3c3.4-7.4,9.1-14.1,13-21.3c1.6-3,5.6-7.1,6-10.3c0.1-0.8,0-1.5-0.6-2.1c-1.8-1.9-5.5-1.7-8-1.9l-2.8-3
		c-6.2,7.6-12.2,15.8-19.7,22.1c8.1-11.5,17.9-21,17.5-35.8c-5.4-8.9-14.5-14.1-18.8-24.2C753.9,79.5,754.7,80.5,755.4,81.3z
		 M659.2,142.9c-6.5-3.1-14.8-5.2-20.3-9.7c-0.2-0.1-0.3-0.3-0.5-0.4c2.8-3.7,6-7.1,8.7-10.9c4.5-6.5,8.3-13.3,13.1-19.6
		c15.7-20.4,37.3-33.8,62.7-37.1c5.6-0.8,14-1.2,19.4,0.8c5.3,2,7,5.9,9.2,10.6c-4.8-4-9-7.2-15.2-8.4c-15.8-3.1-36.1,4.8-48.9,13.6
		C676.8,89,656,111.3,654.2,124c-0.2,1.1-0.2,2.5,0.6,3.4c2.1,2.4,19.8,11,23.8,13.3c7.7,4.3,15.4,8.5,22.6,13.6
		c13.2,9.4,30.9,20.1,37.5,35.4c2.3,5.3,3.2,10.8,4.1,16.5c1.1,6.5,2,12.2,6,17.6l6.1-1.9c8.5-9.1,12.2-17.7,24-24.1
		c4.6-2.5,9.7-4.1,14.2-6.7c6.4-3.7,12-8.9,13.9-16.3c2.9-11.3-2.2-20.8-9.6-28.9c-2.6-2.8-5.8-5.6-7.8-8.9l0.3-0.6
		c1.7,0.5,2.8,1.3,4.3,2.3c5.9,3.5,10.5,9.9,13.8,15.9c4.2,7.7,6.7,14.9,4,23.6c-1.2,3.9-3.2,7.5-5.7,10.7
		c-8.8,11.4-18.4,10.3-29.7,16.6c-17,9.4-22.3,25.9-27.4,43.4c-1.6-14-8.1-16.2-11.7-27.6c-3-9.4-2.9-19.3-7.5-28.4
		C720.3,173.4,678.8,152.3,659.2,142.9z M716.5,225.2L712,224c-10.5-3.9-20.8-12.1-28.9-19.7c-4.8-4.5-7-8-7.2-14.7
		c6.4-7.1,13.1-13.6,20.4-19.7c4,0.3,18.4,12.3,21.5,15.2c8.4,8,12.3,19.7,12.5,31.2C726.1,220.3,722,223.2,716.5,225.2z M732,248.1
		c0.4-1.5,1.1-1.7,2.4-2.6c0.2,0,0.4,0,0.7,0c5.3-0.1,8.4,3.8,12,7.1c-1.8,11.4-5.8,21.8-9.4,32.6c-0.9,2.7-1.8,5.4-2.8,8
		C734,282.1,729.8,258.2,732,248.1z M668.6,405.5c6.3-6.4,13-12.5,19.6-18.5c5.2-4.7,12.5-9.7,16.2-15.6c4.3-6.8,7.7-14.5,11.2-21.7
		c10.8-22.3,20.8-45.7,29.1-69.1c5.8-16.3,11.5-46.6,21.4-59.3c8.7-10.6,19.2-15,32.1-16.6c11.7-1,24.2,4.3,33.9,10.5
		c-10.1-2.1-18.4-5.8-29-4.5c-11.4,1.3-21.6,8.2-28.6,17.1c-6.8,8.7-10.9,18.1-13.6,28.7c-0.5,2-1.6,5-1,7.1c0.4,1.5,2,1.9,3.3,2.4
		c12.7,4.5,33-6.9,44.6-12.2c-11.9,10.8-27.1,19.5-40.7,28.1c-3.4,2.2-6.9,4-10.2,6.4c11.3-2.3,22.5-5,33.6-8.1
		c-5.5,3.5-11.7,6.5-17.7,9.3c-7.5,3.4-26.8,9.4-30.9,15.6c-0.7,1-0.6,1.3-0.4,2.4c2.4,0.7,9.1-3.5,11.6-4.6
		c-7,12.1-15.5,23.7-24,34.8c-4.5,5.9-10.3,11.8-13.8,18.4c11.2-7.1,20.7-13.9,33.7-17.6c-3.7,2.7-7.8,4.9-11.5,7.6
		c-11.1,7.9-22,18-29.4,29.4c16.9-9.4,23.1-11.4,42.4-8.7c-5.2,1.3-10.7,1.7-15.9,3.4c-22.5,7.1-59.3,41.6-76.6,58.8
		c-6.6,6.6-14.5,13.6-18.8,21.9c1.3,2.3,2.6,4.6,4.1,6.7c1.1,1.5,2.3,3.2,4.4,3.4c4.5,0.5,11.3-3.6,15.3-5.5
		c6.4-3,12.7-6.2,18.9-9.7c6.2-3.4,12.3-7.1,18.3-10.9s11.8-7.9,17.5-12.1s11.3-8.6,16.7-13.2c6.8-5.7,14.3-12.2,19.8-19.1
		c3-3.8,3.8-8.6,6.3-12.7c9.7-15.8,21.7-30.3,29.6-47.2c3.3-7,5.1-14.5,7.8-21.8c6-15.4,17.1-20.4,31.4-26.8
		c-5,5.5-10.5,10.3-15.8,15.5c-8.6,8.6-11.2,19.3-15.3,30.3c-6,16.3-17,31.7-26.7,46c-4.9,7.2-7.8,15.9-13.1,22.7
		c-23.5,29.9-71.6,56.4-105.9,72.1c-1.4-0.9-2.6-1.8-4.3-2.1c-1.8,0.6-2.3,1.3-3.6,2.6c-5.3-6.9-10.6-13.7-16.8-19.8
		C641.6,434.9,654.6,419.6,668.6,405.5z M628,455.9c6,4.2,14.1,14.6,15.2,21.9c-0.2,0-0.4,0.1-0.7,0.1c-0.5,0.1-1.5,0.2-1.9-0.1
		c-1.6-1-7.6-13.3-9.9-16.4c-2.4-3-4.9-5.2-8-7.4C624.9,454,626.2,454.7,628,455.9z M618.9,457.8c0.4,0,1,0,1.3,0.1
		c4.5,1.2,13.2,17.2,15.8,21.7l-2.6,3.2c-6.1-7.1-11.3-14.9-17.5-22C616.3,459.5,617.7,458.7,618.9,457.8z M498.2,566
		c-22.7-0.1-45.4,0-68.1,0.3c3.6-9.1,6.2-18.6,9-27.9l12-38.2l43.3-134c4.1,4.3,52,152.4,58.1,170.4c3.3,9.8,6.8,19.6,10.3,29.3
		C541.3,566.2,519.7,566,498.2,566z M569.9,510.5c0.6,1.4,1.3,2.4,2.5,3.3c0.7,0,1.1,0.3,1.7-0.3c0.9-0.8,1.2-2,1.6-3.1
		c0.9-0.7,0.4-0.6,1.5-0.4c1.5,0.2,2.7,0.7,3.6,1.9c0.5,0.7,0.4,1.2,0.5,2.1c-0.8,2.2-2.4,3.1-4.3,4.3c-5.5-1.4-10.2-4.7-14.3-8.6
		c-0.1-3-0.2-5.9,0-8.8l-0.1,0c0,0,0,0.1,0,0.1l-2.7-0.3c-0.2,2.4,0.3,7.1-0.8,9c-0.7-0.2-0.8-0.1-1.1-0.7
		c-1.6-2.8-0.3-12.2,0.8-15.3c1.2-3.3,3.3-6.2,4.7-9.5c-4.5,2.9-8.3,6.1-9.6,11.6c-0.6,2.6,0.1,7.5-1.3,9.4h-1.1
		c-2.1-2.5-1.9-8.5-1.7-11.7c0.2-4.3,5.5-10.2,8.7-13.2c18.4-5.4,37.5-10,56.6-12l9.5,11.6c-3.4,3.8-6.4,8.3-10,11.8
		c-7.5,1.9-41,6.9-45.1,11.6C568.6,505.8,568.9,508.1,569.9,510.5z M594.4,502.6c18-4.3,21.9-3,32.4-19.3c1.3,1.3,3.1,3.2,5.1,3.5
		c4.3,0.6,9.9-1.2,13.4-3.7c3.1-2.2,3.9-4.2,4.5-7.9c10.3-2.4,19.6-8.1,28.9-13.1c24.2-13,47.2-26.5,67.8-44.8
		c5.4-4.8,10.7-9.6,15.3-15.1c5.4-6.5,8.1-14,12.1-21.2c3.3-5.6,7.1-10.6,10.9-15.7c0.1,0.1,0.3,0.1,0.4,0.2
		c5.1,4.1,8,40.1,8.3,48.5c-18.8,4.1-80.7,26.2-91.6,40.5c-11.8,15.3-28.8,90.1-33.4,111.7c-3,14-5.1,28.5-8.8,42.3
		c-1.9,7.2-7.4,10.3-9.1,18.4c-1.7,8.4-0.4,12.2,0.3,20.2c0.1,1.5-2,3.6-2.9,4.7c-4.5-11.2-8.2-22.8-12.1-34.2
		c-4.1-10.1-7.3-21-10.9-31.3C615.3,558.3,606,529.8,594.4,502.6z M661.5,666.6c2.8-0.5,3.6-5.4,4.8-7.5l0.3-0.6
		c4.1,1.7,8.1,3.5,12.1,5.4c-1.5,2.6-3,5-4.7,7.3c-6-1.5-11.6-1.8-17.8-2c-10.9,0.7-20.6,6-30.6,9.9c3.4-3.1,7.4-5.5,11.2-8.2
		c7.9-5.5,14-12.5,19.2-20.5c1.6,0.9,2.9,2.2,4.2,3.3c-1.7,3.9-3.7,7.7-5.5,11.5C656.6,665.7,659.6,666.9,661.5,666.6z M711.7,704.9
		c-10.3,5.9-40.1,0.8-52.8,0.7c-9.1,0-18.2,1.1-27.3,1.6c-14.3,0.9-30.3,0.3-44.2-3c-4-1-7.9-2.1-11.7-3.6
		c13.6,0.7,26.8-1.2,40.3-2.6c11.7-1.2,23.3-2.2,35-3.1c18.4-1.2,43.8,1.9,61-3.3c2.1,1.6,2.6,7.9,3,10.4
		C714.1,703.1,712.9,704.2,711.7,704.9z M731.8,640.4c-0.6,2.4-0.9,5.3-1.9,7.6c-2.5,5.9-8,9.7-13.9,11.7c-12,4.3-24.3,1.8-35.5-3.6
		c-1.9-0.9-6.7-2.8-7.4-4.8c1.2-0.6,1.7-0.2,2.9,0c11.3,3.7,28.2,6.9,39.6,2.1c5.1-2.2,7.6-5.2,9.5-10.2c-3.1,1.6-7.4,3.4-11,3.5
		c-1,0-0.6,0.2-1.3-0.5c1.1-2.3,7.6-4.2,10-6c1.9-1.2,3.4-3.2,4.9-4.9c0.2,0,0.3,0.1,0.5,0.1C730.2,636.1,731,638.7,731.8,640.4z
		 M770.4,502c-3.5-4-6.1-9.1-9.1-13.5c-2.9-4.4-6.4-8.3-9.8-12.3c3.1,11,8.8,21.8,13.9,32c-0.2,6.1-1.5,12.1-2.9,18.1
		c-6.3,28.7-18.3,55.4-30.2,82.2c-5.6,12.6-6.1,20.3-16.3,31c-9.7,2.9-18.5,3.5-28.1,0.1c-11.1-3.9-20.1-10.2-25.2-21
		c1.1-5.6,2.8-11.3,4-16.9c5.6-26.4,26.6-129.9,40.9-145.2c12.7-13.6,70.6-33.1,90.4-37.6c8.8-1.8,17.5-2.7,26.2-3.2
		c32.1-0.6,57.1,17.1,86.7,23.8c20.1,4.5,40.8,5.1,58.8-6.4l-0.1,10.2c-33.1,18-66.7,0.2-98-11.9c-9.9-3.8-20.6-7.2-31.1-9.2
		c-30.6-5.9-63.5,9.4-91.1,21.1c-8.3,3.6-17.9,6.6-25.4,11.7c-8.5,5.8-13.4,15.4-17.5,24.5c-7.4,16.5-11.4,34.4-16.3,51.8
		c-5.7,19.6-10.8,39.3-15.5,59.1c-1.7,7.2-3.7,14.5-5.1,21.8c-0.8,4.5,0.3,8,3,11.7c5.1,7.1,13.1,11.2,21.6,12.5
		c5.8,0.9,13,0.9,17.8-2.9c8-6.3,32.9-77.2,37-90.6c1.7-5.5,3-11.1,3.8-16.8c2.6-19.2-2.8-38-13.2-54.1c-2.6-4-5.7-7.6-8.6-11.4
		c8.4,3.1,13.5,7.7,20.2,13.4c7.6,6.4,15.8,14.3,24.3,19.4c12.1,7.2,35.4,8.9,49.5,10.1c27.9,3.4,70.9,4.5,97.7-3.8
		c23-7.2,34.3-18.8,45.3-39.7c-0.3,1.2-0.7,2.3-1.1,3.5c-5,16.1-14.9,28.7-29.9,36.4c-9.1,4.7-19.6,7.1-29.7,9
		c-32.9,6.2-61.1,4.6-94.1,0.8C798.7,508,784.3,506.5,770.4,502z M841.1,805c-9.5-20-18.6-40.3-27.2-60.7
		c-6.2-14.5-12.6-29.4-17.7-44.4c-4.5-13.3-8.2-27.1-9.9-41.1c-2.4-20.3,0.9-40.5,5.1-60.3c3-14.3,18.1-74.6,29.4-82
		c1.6-0.1,2.8-0.2,4.3,0.3c0.4,1.3-0.7,2.5-1.3,3.7c-17.3,32.4-34.4,97.1-31.5,133.6c2.4,29.4,15.2,57.5,26.4,84.4
		c9.6,23.2,19.7,46.2,30.3,68.9c3.5,7.5,7,15,10.6,22.4c2.1,4.3,5.3,9.2,6.3,13.9l-0.6,0.8c-3.3-0.8-4.6-1.6-6.5-4.4
		C851.7,829.4,846.6,816.6,841.1,805z M864.7,868.6c-6.5-2.5-9.5-8.7-12.1-14.7l1.5-1.5c2.8,5.9,6.4,11.8,12.9,14
		c7,2.4,16.2,0,22.6,1.9l-0.1,0.5C882.7,870.4,871.2,871.1,864.7,868.6z M889.6,869l0-0.6c4-1.9,9.7-2.1,14.1-3.1
		c6.1-1.4,11.7-3.7,17.2-6.6c-3.7,3.7-7.4,7.5-11.4,10.9C903.2,869.1,895.6,870.4,889.6,869z M962.2,901.1c0.3,0.3,0.6,0.7,0.9,1
		c2.1,2.4,3.5,4.3,3.2,7.6c-0.4,3.7-3.1,6.8-5.7,9.2c-8.1,7.2-20.5,11.1-29.6,17.9c-8.7,6.6-15.1,15.8-23.8,22.5
		c-16.9,12.9-39.3,17.4-60.1,14.6c-0.6-0.1-1.2-0.2-1.9-0.3c-1.3-0.3-2.3-0.4-3.1-1.5c1.4-1.9,11.9-2,14.5-2.4
		c8.3-1.2,16.6-3.4,24.3-6.9c20.7-9.5,26.7-25.5,43-38c6.7-5.1,14.4-8.7,21.7-12.8C951.3,908.6,956.8,904.9,962.2,901.1z
		 M938.1,874.7c0.2,0.1,0.3,0.2,0.5,0.3c1.2,0.9,1.6,2.8,1.7,4.2c0.5,6.1-3.1,12.8-6.9,17.5c-12.3,15-19.2,7.3-33.8,8.9l-0.7,0.1
		c-6.8,6.5-10.3,20.4-14.5,29.1c-2.4,4.9-5.3,9.2-8.6,13.6l-0.8,0.4c-0.1-2.5,4.1-8.7,5.2-11.4c2.3-5.7,4.4-11.6,6.3-17.5
		c2-6.2,3.3-13.2,6.9-18.6c6.5-9.8,17.1-3.3,26.3-5.2c12.4-2.6,12.7-12.8,18.2-20.9C938,874.9,938,874.8,938.1,874.7z M932.4,873
		c-2.2,5.1-4.3,11.4-8.5,15.1c-5.7,5.1-14.5,3.6-21.6,3.1L901,891c-2.2-1.7-4.2-13.6-5-16.6c3.6,0.6,7.6,1.3,11.3,1.1
		c8.3-0.5,13.3-8,18.4-13.7C928.3,865,930.3,869.3,932.4,873z M923.4,814.6c0.9,0.5,1.8,1.1,2.6,1.8c6.1,5.2,8,16.1,8.7,23.6
		c-0.9,2.1-2.1,5.2-3.9,6.6c-1.4-2.4-0.5-8.4-1.1-11.5c-0.5-2.8-1.6-5.5-2.7-8.1c-15.9,19-36.1,25.5-60.4,26.8
		c-3.8,0.2-8.7-2.2-12.1-1.6c-0.2,0-0.4,0.1-0.5,0.2l-1.5,1.6c-1.6-5.4-2.3-8.7-0.6-14.2c1.3,1.6,2.7,3.3,4.2,4.8
		c3.2,3.1,9.6,3.1,13.8,3c15.3-0.4,37.5-6.1,48.3-17.6C923.3,824.7,923.7,821.5,923.4,814.6z M862.7,628c-3.3,7-8.6,16.8-4.4,24.4
		c1.5,2.7,3.7,5.4,4.6,8.4c0.6,1.9,0.7,4.4-0.5,6c-1.1,1.5-3,1.6-4.7,1.8c-1,0.1-0.4-0.1-1.4,0.6c1.1,2.9,11.1,14.2,13.6,18
		c6.9,10,12.5,20.5,17.4,31.6c9.8,22.2,16.7,46.2,22.9,69.6c3.1,11.6,5.4,23.4,9.4,34.7c-1.4,2.7-2.9,5.3-4.4,7.8
		c-0.3-8.5-2.6-16.4-4.8-24.5c-8.8-34.6-21.2-80.4-40.6-110.3c-10.3-15.9-23.6-30.8-35.8-45.2c8.5,4.5,16.1,11.3,23.2,17.7
		c-1.7-3.1-2.9-6.1-3.8-9.5c-1.5-5.7-2.3-12.4-1-18.2c2.3-9.9,7.4-19.2,11.8-28.3c4.2-8.8,8.4-17.7,12.4-26.7
		c5.7-12.7,10.8-25.7,16.6-38.3c2-4.3,3.7-8.7,6.1-12.7c1.5,7.8-20.4,58.7-24.9,68.6C870.7,611.8,866.5,619.8,862.7,628z"/>
	<path d="M671.5,665.2l0.8-1.5c-1.2-2-3.3-2.1-5.4-2.7c-0.9,1.2-1.3,1.3-1,2.8C667.2,665,669.7,665.1,671.5,665.2z"/>
	<path d="M565.3,491.5c-0.3,0.1-0.6,0.2-0.9,0.4c-2.8,1.6-3.8,6-4.6,8.8l0.1,0c0,0,0-0.1,0-0.1l2.7,0.3
		C563.6,498.1,566,494.4,565.3,491.5z"/>
</g>
</svg>
