<?xml version="1.0" encoding="utf-8"?>
<!-- Generator: Adobe Illustrator 28.1.0, SVG Export Plug-In . SVG Version: 6.00 Build 0)  -->
<svg version="1.1" id="Слой_1" xmlns="http://www.w3.org/2000/svg" xmlns:xlink="http://www.w3.org/1999/xlink" x="0px" y="0px"
	 viewBox="0 0 771.3 845.2" style="enable-background:new 0 0 771.3 845.2;" xml:space="preserve">
<style type="text/css">
	.st0{fill:#1D1D1B;}
</style>
<g>
	<path class="st0" d="M666.3,643.1c4.5,0,9.1,0,13.6,0.1c4.7,0,9,2.9,10.8,7.2c2.7,6.3,5,12.8,7.7,19l59.8,131.9
		c3.1,6.7,6.6,13.2,9.6,19.9c2.8,6,0.1,13-6,15.7v0c-3.3,1.4-6.6,3.1-9.9,4.9c-6,3.2-13.6,0.7-16.4-5.6
		c-6.5-14.8-13.6-29.5-20.2-44.3l-38.8-86.8c-3-6.5-14-29.2-21.1-45.4C652,651.9,657.7,643.1,666.3,643.1z"/>
	<path class="st0" d="M373.2,8.9c4.3-10.4,19-10.3,23.2,0.1c2.1,5.3,3.9,10.1,4.9,12.4l220.4,481.4c1.2,2.6,2.4,5.1,3.6,7.6
		c4,8.4-2.1,18.1-11.4,18c-3.2,0-6.3-0.1-9.5-0.1c-4.9-0.1-9.4-3-11.3-7.5c-2.8-6.5-6-12.9-9-19.3L432.9,172.7
		c-12.1-26.4-23.8-53.1-36.2-79.4c-4.6-9.6-18.4-9.6-22.8,0.1c0,0.1-0.1,0.2-0.1,0.2l-94,205.6c-12.8,27.7-26.4,55.2-38.1,83.4
		c-0.1,0.3-0.3,0.6-0.4,0.8c-3,5.7-5.3,11.7-7.9,17.5L57.3,788.4c-7.2,16.1-15.3,32-22.5,48.1c-3,6.8-11.2,9.5-17.6,5.8
		c-2.8-1.6-5.5-3.2-8.2-4.8c-5.6-3.3-7.8-10.3-5-16.2c1.2-2.6,2.5-5.2,3.7-7.8l300.2-657.4c14-30.5,28.1-61.1,41.4-91.9l19.1-43.7
		C370,16.9,371.6,12.9,373.2,8.9z"/>
	<path class="st0" d="M372.9,324.4c4.4-10.2,18.8-10.3,23.4-0.1c8,18,17.6,40.2,19.7,44.8l68.7,150.7c6.9,14.9,13.4,30.2,20.5,45
		c2.1,4.4,6.6,7.2,11.5,7.2h196c7,0,12.7,5.7,12.7,12.7v9.5c0,7-5.7,12.7-12.7,12.7c-11.8,0.1-23.6-0.3-35.3-0.3l-386.9,0
		c-4.9,0-9.4,2.8-11.5,7.3c-2.7,5.7-5.2,11.4-7.7,17.1c-10.1,23.5-21.3,46.3-31.9,69.6l-61,133.4c-3.1,6.8-11.3,9.5-17.8,5.8
		c-2.5-1.4-5.1-2.9-7.6-4.3c-5.7-3.2-8-10.2-5.4-16.2c8.1-18.7,17.3-36.9,25.9-55.4l131.8-289.2c20.1-43.9,39.1-88.3,59.6-132
		C367.5,337.2,370.2,330.8,372.9,324.4z M396.4,407.6c-4.4-10.2-18.8-10.4-23.4-0.2c-16.9,37.4-34.3,74.5-51.2,112l-14.4,31.8
		c-0.4,0.9-0.8,1.7-1.2,2.6c-4.1,8.5,2.1,18.3,11.5,18.3h67.4l58.4,0c2.6,0,5.2-0.1,7.8-0.1c9.2-0.2,15.1-9.7,11.3-18
		c0-0.1-0.1-0.1-0.1-0.2l-62-136.4C399.4,414.8,398,411.4,396.4,407.6z"/>
</g>
</svg>
